<mxfile host="app.diagrams.net" modified="2021-05-08T09:09:28.042Z" agent="5.0 (Macintosh; Intel Mac OS X 10_15_7) AppleWebKit/537.36 (KHTML, like Gecko) Chrome/90.0.4430.93 Safari/537.36" etag="RpwsB-IEQLQ4T2-UE9Cs" version="14.6.6" type="github">
  <diagram id="nz7V435rbGTaK7ESCfE1" name="Page-1">
    <mxGraphModel dx="1853" dy="669" grid="1" gridSize="10" guides="1" tooltips="1" connect="1" arrows="1" fold="1" page="0" pageScale="1" pageWidth="827" pageHeight="1169" math="0" shadow="0">
      <root>
        <mxCell id="0" />
        <mxCell id="1" parent="0" />
        <mxCell id="Majim5uuupVk0N4lPzxY-30" value="" style="group" vertex="1" connectable="0" parent="1">
          <mxGeometry x="120" y="190" width="360" height="250" as="geometry" />
        </mxCell>
        <mxCell id="Majim5uuupVk0N4lPzxY-2" value="" style="ellipse;whiteSpace=wrap;html=1;aspect=fixed;" vertex="1" parent="Majim5uuupVk0N4lPzxY-30">
          <mxGeometry x="80" width="80" height="80" as="geometry" />
        </mxCell>
        <mxCell id="Majim5uuupVk0N4lPzxY-3" value="" style="ellipse;whiteSpace=wrap;html=1;aspect=fixed;" vertex="1" parent="Majim5uuupVk0N4lPzxY-30">
          <mxGeometry x="200" width="80" height="80" as="geometry" />
        </mxCell>
        <mxCell id="Majim5uuupVk0N4lPzxY-8" style="edgeStyle=orthogonalEdgeStyle;rounded=0;orthogonalLoop=1;jettySize=auto;html=1;exitX=1;exitY=0.5;exitDx=0;exitDy=0;endArrow=none;endFill=0;" edge="1" parent="Majim5uuupVk0N4lPzxY-30" source="Majim5uuupVk0N4lPzxY-2" target="Majim5uuupVk0N4lPzxY-3">
          <mxGeometry relative="1" as="geometry" />
        </mxCell>
        <mxCell id="Majim5uuupVk0N4lPzxY-4" value="" style="ellipse;whiteSpace=wrap;html=1;aspect=fixed;" vertex="1" parent="Majim5uuupVk0N4lPzxY-30">
          <mxGeometry y="90" width="80" height="80" as="geometry" />
        </mxCell>
        <mxCell id="Majim5uuupVk0N4lPzxY-10" style="edgeStyle=none;rounded=0;orthogonalLoop=1;jettySize=auto;html=1;exitX=0;exitY=0.5;exitDx=0;exitDy=0;entryX=0.5;entryY=0;entryDx=0;entryDy=0;endArrow=none;endFill=0;" edge="1" parent="Majim5uuupVk0N4lPzxY-30" source="Majim5uuupVk0N4lPzxY-2" target="Majim5uuupVk0N4lPzxY-4">
          <mxGeometry relative="1" as="geometry" />
        </mxCell>
        <mxCell id="Majim5uuupVk0N4lPzxY-17" style="edgeStyle=none;rounded=0;orthogonalLoop=1;jettySize=auto;html=1;exitX=0;exitY=1;exitDx=0;exitDy=0;entryX=1;entryY=0;entryDx=0;entryDy=0;endArrow=none;endFill=0;" edge="1" parent="Majim5uuupVk0N4lPzxY-30" source="Majim5uuupVk0N4lPzxY-3" target="Majim5uuupVk0N4lPzxY-4">
          <mxGeometry relative="1" as="geometry" />
        </mxCell>
        <mxCell id="Majim5uuupVk0N4lPzxY-23" style="edgeStyle=none;rounded=0;orthogonalLoop=1;jettySize=auto;html=1;exitX=0;exitY=0;exitDx=0;exitDy=0;endArrow=none;endFill=0;" edge="1" parent="Majim5uuupVk0N4lPzxY-30" source="Majim5uuupVk0N4lPzxY-5" target="Majim5uuupVk0N4lPzxY-2">
          <mxGeometry relative="1" as="geometry">
            <mxPoint x="160" y="60" as="targetPoint" />
          </mxGeometry>
        </mxCell>
        <mxCell id="Majim5uuupVk0N4lPzxY-5" value="" style="ellipse;whiteSpace=wrap;html=1;aspect=fixed;" vertex="1" parent="Majim5uuupVk0N4lPzxY-30">
          <mxGeometry x="280" y="90" width="80" height="80" as="geometry" />
        </mxCell>
        <mxCell id="Majim5uuupVk0N4lPzxY-16" style="edgeStyle=none;rounded=0;orthogonalLoop=1;jettySize=auto;html=1;exitX=1;exitY=0.5;exitDx=0;exitDy=0;entryX=0.5;entryY=0;entryDx=0;entryDy=0;endArrow=none;endFill=0;" edge="1" parent="Majim5uuupVk0N4lPzxY-30" source="Majim5uuupVk0N4lPzxY-3" target="Majim5uuupVk0N4lPzxY-5">
          <mxGeometry relative="1" as="geometry" />
        </mxCell>
        <mxCell id="Majim5uuupVk0N4lPzxY-18" style="edgeStyle=none;rounded=0;orthogonalLoop=1;jettySize=auto;html=1;exitX=1;exitY=0.5;exitDx=0;exitDy=0;endArrow=none;endFill=0;" edge="1" parent="Majim5uuupVk0N4lPzxY-30" source="Majim5uuupVk0N4lPzxY-4" target="Majim5uuupVk0N4lPzxY-5">
          <mxGeometry relative="1" as="geometry" />
        </mxCell>
        <mxCell id="Majim5uuupVk0N4lPzxY-25" style="edgeStyle=none;rounded=0;orthogonalLoop=1;jettySize=auto;html=1;exitX=0.75;exitY=0.125;exitDx=0;exitDy=0;endArrow=none;endFill=0;exitPerimeter=0;" edge="1" parent="Majim5uuupVk0N4lPzxY-30" source="Majim5uuupVk0N4lPzxY-6" target="Majim5uuupVk0N4lPzxY-3">
          <mxGeometry relative="1" as="geometry" />
        </mxCell>
        <mxCell id="Majim5uuupVk0N4lPzxY-6" value="" style="ellipse;whiteSpace=wrap;html=1;aspect=fixed;" vertex="1" parent="Majim5uuupVk0N4lPzxY-30">
          <mxGeometry x="80" y="170" width="80" height="80" as="geometry" />
        </mxCell>
        <mxCell id="Majim5uuupVk0N4lPzxY-22" style="edgeStyle=none;rounded=0;orthogonalLoop=1;jettySize=auto;html=1;exitX=0.5;exitY=1;exitDx=0;exitDy=0;endArrow=none;endFill=0;" edge="1" parent="Majim5uuupVk0N4lPzxY-30" source="Majim5uuupVk0N4lPzxY-2" target="Majim5uuupVk0N4lPzxY-6">
          <mxGeometry relative="1" as="geometry" />
        </mxCell>
        <mxCell id="Majim5uuupVk0N4lPzxY-15" style="edgeStyle=none;rounded=0;orthogonalLoop=1;jettySize=auto;html=1;exitX=0.5;exitY=1;exitDx=0;exitDy=0;entryX=0;entryY=0.5;entryDx=0;entryDy=0;endArrow=none;endFill=0;" edge="1" parent="Majim5uuupVk0N4lPzxY-30" source="Majim5uuupVk0N4lPzxY-4" target="Majim5uuupVk0N4lPzxY-6">
          <mxGeometry relative="1" as="geometry" />
        </mxCell>
        <mxCell id="Majim5uuupVk0N4lPzxY-24" style="edgeStyle=none;rounded=0;orthogonalLoop=1;jettySize=auto;html=1;exitX=0;exitY=1;exitDx=0;exitDy=0;endArrow=none;endFill=0;entryX=0.95;entryY=0.3;entryDx=0;entryDy=0;entryPerimeter=0;" edge="1" parent="Majim5uuupVk0N4lPzxY-30" source="Majim5uuupVk0N4lPzxY-5" target="Majim5uuupVk0N4lPzxY-6">
          <mxGeometry relative="1" as="geometry" />
        </mxCell>
        <mxCell id="Majim5uuupVk0N4lPzxY-14" style="edgeStyle=none;rounded=0;orthogonalLoop=1;jettySize=auto;html=1;exitX=1;exitY=0.5;exitDx=0;exitDy=0;entryX=0.5;entryY=1;entryDx=0;entryDy=0;endArrow=none;endFill=0;" edge="1" parent="Majim5uuupVk0N4lPzxY-30" source="Majim5uuupVk0N4lPzxY-7" target="Majim5uuupVk0N4lPzxY-5">
          <mxGeometry relative="1" as="geometry" />
        </mxCell>
        <mxCell id="Majim5uuupVk0N4lPzxY-20" style="edgeStyle=none;rounded=0;orthogonalLoop=1;jettySize=auto;html=1;exitX=0.5;exitY=0;exitDx=0;exitDy=0;entryX=0.5;entryY=1;entryDx=0;entryDy=0;endArrow=none;endFill=0;" edge="1" parent="Majim5uuupVk0N4lPzxY-30" source="Majim5uuupVk0N4lPzxY-7" target="Majim5uuupVk0N4lPzxY-3">
          <mxGeometry relative="1" as="geometry" />
        </mxCell>
        <mxCell id="Majim5uuupVk0N4lPzxY-7" value="" style="ellipse;whiteSpace=wrap;html=1;aspect=fixed;" vertex="1" parent="Majim5uuupVk0N4lPzxY-30">
          <mxGeometry x="200" y="170" width="80" height="80" as="geometry" />
        </mxCell>
        <mxCell id="Majim5uuupVk0N4lPzxY-21" style="edgeStyle=none;rounded=0;orthogonalLoop=1;jettySize=auto;html=1;exitX=0.788;exitY=0.938;exitDx=0;exitDy=0;entryX=0.313;entryY=0.05;entryDx=0;entryDy=0;entryPerimeter=0;endArrow=none;endFill=0;exitPerimeter=0;" edge="1" parent="Majim5uuupVk0N4lPzxY-30" source="Majim5uuupVk0N4lPzxY-2" target="Majim5uuupVk0N4lPzxY-7">
          <mxGeometry relative="1" as="geometry" />
        </mxCell>
        <mxCell id="Majim5uuupVk0N4lPzxY-19" style="edgeStyle=none;rounded=0;orthogonalLoop=1;jettySize=auto;html=1;exitX=1;exitY=1;exitDx=0;exitDy=0;entryX=0;entryY=0;entryDx=0;entryDy=0;endArrow=none;endFill=0;" edge="1" parent="Majim5uuupVk0N4lPzxY-30" source="Majim5uuupVk0N4lPzxY-4" target="Majim5uuupVk0N4lPzxY-7">
          <mxGeometry relative="1" as="geometry" />
        </mxCell>
        <mxCell id="Majim5uuupVk0N4lPzxY-13" style="edgeStyle=none;rounded=0;orthogonalLoop=1;jettySize=auto;html=1;exitX=1;exitY=0.5;exitDx=0;exitDy=0;entryX=0;entryY=0.5;entryDx=0;entryDy=0;endArrow=none;endFill=0;" edge="1" parent="Majim5uuupVk0N4lPzxY-30" source="Majim5uuupVk0N4lPzxY-6" target="Majim5uuupVk0N4lPzxY-7">
          <mxGeometry relative="1" as="geometry" />
        </mxCell>
        <mxCell id="Majim5uuupVk0N4lPzxY-29" value="" style="group" vertex="1" connectable="0" parent="Majim5uuupVk0N4lPzxY-30">
          <mxGeometry x="99.99885682970029" y="44.19872981077805" width="156.2538290724796" height="169.54190528383288" as="geometry" />
        </mxCell>
        <mxCell id="Majim5uuupVk0N4lPzxY-26" value="" style="html=1;whiteSpace=wrap;shape=isoCube2;backgroundOutline=1;isoAngle=15;fillColor=#d5e8d4;strokeColor=#82b366;opacity=50;rotation=-30;" vertex="1" parent="Majim5uuupVk0N4lPzxY-29">
          <mxGeometry x="18.97114317029974" y="15.801270189221952" width="90" height="100" as="geometry" />
        </mxCell>
        <mxCell id="Majim5uuupVk0N4lPzxY-27" value="" style="html=1;whiteSpace=wrap;shape=isoCube2;backgroundOutline=1;isoAngle=15;fillColor=#d5e8d4;strokeColor=#82b366;opacity=50;rotation=-30;" vertex="1" parent="Majim5uuupVk0N4lPzxY-29">
          <mxGeometry x="42.18114317029974" y="111.64127018922193" width="45" height="50" as="geometry" />
        </mxCell>
        <mxCell id="Majim5uuupVk0N4lPzxY-28" value="" style="html=1;whiteSpace=wrap;shape=isoCube2;backgroundOutline=1;isoAngle=15;fillColor=#d5e8d4;strokeColor=#82b366;opacity=50;rotation=-30;" vertex="1" parent="Majim5uuupVk0N4lPzxY-29">
          <mxGeometry x="90.87114317029975" y="62.88127018922194" width="54" height="60" as="geometry" />
        </mxCell>
        <mxCell id="Majim5uuupVk0N4lPzxY-31" value="" style="group" vertex="1" connectable="0" parent="1">
          <mxGeometry x="-270" y="450" width="360" height="250" as="geometry" />
        </mxCell>
        <mxCell id="Majim5uuupVk0N4lPzxY-32" value="" style="ellipse;whiteSpace=wrap;html=1;aspect=fixed;fillColor=#00CC00;gradientDirection=north;opacity=80;" vertex="1" parent="Majim5uuupVk0N4lPzxY-31">
          <mxGeometry x="80" width="80" height="80" as="geometry" />
        </mxCell>
        <mxCell id="Majim5uuupVk0N4lPzxY-33" value="" style="ellipse;whiteSpace=wrap;html=1;aspect=fixed;" vertex="1" parent="Majim5uuupVk0N4lPzxY-31">
          <mxGeometry x="200" width="80" height="80" as="geometry" />
        </mxCell>
        <mxCell id="Majim5uuupVk0N4lPzxY-34" style="edgeStyle=orthogonalEdgeStyle;rounded=0;orthogonalLoop=1;jettySize=auto;html=1;exitX=1;exitY=0.5;exitDx=0;exitDy=0;endArrow=none;endFill=0;" edge="1" parent="Majim5uuupVk0N4lPzxY-31" source="Majim5uuupVk0N4lPzxY-32" target="Majim5uuupVk0N4lPzxY-33">
          <mxGeometry relative="1" as="geometry" />
        </mxCell>
        <mxCell id="Majim5uuupVk0N4lPzxY-35" value="" style="ellipse;whiteSpace=wrap;html=1;aspect=fixed;" vertex="1" parent="Majim5uuupVk0N4lPzxY-31">
          <mxGeometry y="90" width="80" height="80" as="geometry" />
        </mxCell>
        <mxCell id="Majim5uuupVk0N4lPzxY-36" style="edgeStyle=none;rounded=0;orthogonalLoop=1;jettySize=auto;html=1;exitX=0;exitY=0.5;exitDx=0;exitDy=0;entryX=0.5;entryY=0;entryDx=0;entryDy=0;endArrow=none;endFill=0;" edge="1" parent="Majim5uuupVk0N4lPzxY-31" source="Majim5uuupVk0N4lPzxY-32" target="Majim5uuupVk0N4lPzxY-35">
          <mxGeometry relative="1" as="geometry" />
        </mxCell>
        <mxCell id="Majim5uuupVk0N4lPzxY-37" style="edgeStyle=none;rounded=0;orthogonalLoop=1;jettySize=auto;html=1;exitX=0;exitY=1;exitDx=0;exitDy=0;entryX=1;entryY=0;entryDx=0;entryDy=0;endArrow=none;endFill=0;" edge="1" parent="Majim5uuupVk0N4lPzxY-31" source="Majim5uuupVk0N4lPzxY-33" target="Majim5uuupVk0N4lPzxY-35">
          <mxGeometry relative="1" as="geometry" />
        </mxCell>
        <mxCell id="Majim5uuupVk0N4lPzxY-38" style="edgeStyle=none;rounded=0;orthogonalLoop=1;jettySize=auto;html=1;exitX=0;exitY=0;exitDx=0;exitDy=0;endArrow=none;endFill=0;" edge="1" parent="Majim5uuupVk0N4lPzxY-31" source="Majim5uuupVk0N4lPzxY-39" target="Majim5uuupVk0N4lPzxY-32">
          <mxGeometry relative="1" as="geometry">
            <mxPoint x="160" y="60" as="targetPoint" />
          </mxGeometry>
        </mxCell>
        <mxCell id="Majim5uuupVk0N4lPzxY-39" value="" style="ellipse;whiteSpace=wrap;html=1;aspect=fixed;" vertex="1" parent="Majim5uuupVk0N4lPzxY-31">
          <mxGeometry x="280" y="90" width="80" height="80" as="geometry" />
        </mxCell>
        <mxCell id="Majim5uuupVk0N4lPzxY-40" style="edgeStyle=none;rounded=0;orthogonalLoop=1;jettySize=auto;html=1;exitX=1;exitY=0.5;exitDx=0;exitDy=0;entryX=0.5;entryY=0;entryDx=0;entryDy=0;endArrow=none;endFill=0;" edge="1" parent="Majim5uuupVk0N4lPzxY-31" source="Majim5uuupVk0N4lPzxY-33" target="Majim5uuupVk0N4lPzxY-39">
          <mxGeometry relative="1" as="geometry" />
        </mxCell>
        <mxCell id="Majim5uuupVk0N4lPzxY-41" style="edgeStyle=none;rounded=0;orthogonalLoop=1;jettySize=auto;html=1;exitX=1;exitY=0.5;exitDx=0;exitDy=0;endArrow=none;endFill=0;" edge="1" parent="Majim5uuupVk0N4lPzxY-31" source="Majim5uuupVk0N4lPzxY-35" target="Majim5uuupVk0N4lPzxY-39">
          <mxGeometry relative="1" as="geometry" />
        </mxCell>
        <mxCell id="Majim5uuupVk0N4lPzxY-42" style="edgeStyle=none;rounded=0;orthogonalLoop=1;jettySize=auto;html=1;exitX=0.75;exitY=0.125;exitDx=0;exitDy=0;endArrow=none;endFill=0;exitPerimeter=0;" edge="1" parent="Majim5uuupVk0N4lPzxY-31" source="Majim5uuupVk0N4lPzxY-43" target="Majim5uuupVk0N4lPzxY-33">
          <mxGeometry relative="1" as="geometry" />
        </mxCell>
        <mxCell id="Majim5uuupVk0N4lPzxY-43" value="" style="ellipse;whiteSpace=wrap;html=1;aspect=fixed;" vertex="1" parent="Majim5uuupVk0N4lPzxY-31">
          <mxGeometry x="80" y="170" width="80" height="80" as="geometry" />
        </mxCell>
        <mxCell id="Majim5uuupVk0N4lPzxY-44" style="edgeStyle=none;rounded=0;orthogonalLoop=1;jettySize=auto;html=1;exitX=0.5;exitY=1;exitDx=0;exitDy=0;endArrow=none;endFill=0;" edge="1" parent="Majim5uuupVk0N4lPzxY-31" source="Majim5uuupVk0N4lPzxY-32" target="Majim5uuupVk0N4lPzxY-43">
          <mxGeometry relative="1" as="geometry" />
        </mxCell>
        <mxCell id="Majim5uuupVk0N4lPzxY-45" style="edgeStyle=none;rounded=0;orthogonalLoop=1;jettySize=auto;html=1;exitX=0.5;exitY=1;exitDx=0;exitDy=0;entryX=0;entryY=0.5;entryDx=0;entryDy=0;endArrow=none;endFill=0;" edge="1" parent="Majim5uuupVk0N4lPzxY-31" source="Majim5uuupVk0N4lPzxY-35" target="Majim5uuupVk0N4lPzxY-43">
          <mxGeometry relative="1" as="geometry" />
        </mxCell>
        <mxCell id="Majim5uuupVk0N4lPzxY-46" style="edgeStyle=none;rounded=0;orthogonalLoop=1;jettySize=auto;html=1;exitX=0;exitY=1;exitDx=0;exitDy=0;endArrow=none;endFill=0;entryX=0.95;entryY=0.3;entryDx=0;entryDy=0;entryPerimeter=0;" edge="1" parent="Majim5uuupVk0N4lPzxY-31" source="Majim5uuupVk0N4lPzxY-39" target="Majim5uuupVk0N4lPzxY-43">
          <mxGeometry relative="1" as="geometry" />
        </mxCell>
        <mxCell id="Majim5uuupVk0N4lPzxY-47" style="edgeStyle=none;rounded=0;orthogonalLoop=1;jettySize=auto;html=1;exitX=1;exitY=0.5;exitDx=0;exitDy=0;entryX=0.5;entryY=1;entryDx=0;entryDy=0;endArrow=none;endFill=0;" edge="1" parent="Majim5uuupVk0N4lPzxY-31" source="Majim5uuupVk0N4lPzxY-49" target="Majim5uuupVk0N4lPzxY-39">
          <mxGeometry relative="1" as="geometry" />
        </mxCell>
        <mxCell id="Majim5uuupVk0N4lPzxY-48" style="edgeStyle=none;rounded=0;orthogonalLoop=1;jettySize=auto;html=1;exitX=0.5;exitY=0;exitDx=0;exitDy=0;entryX=0.5;entryY=1;entryDx=0;entryDy=0;endArrow=none;endFill=0;" edge="1" parent="Majim5uuupVk0N4lPzxY-31" source="Majim5uuupVk0N4lPzxY-49" target="Majim5uuupVk0N4lPzxY-33">
          <mxGeometry relative="1" as="geometry" />
        </mxCell>
        <mxCell id="Majim5uuupVk0N4lPzxY-49" value="" style="ellipse;whiteSpace=wrap;html=1;aspect=fixed;" vertex="1" parent="Majim5uuupVk0N4lPzxY-31">
          <mxGeometry x="200" y="170" width="80" height="80" as="geometry" />
        </mxCell>
        <mxCell id="Majim5uuupVk0N4lPzxY-50" style="edgeStyle=none;rounded=0;orthogonalLoop=1;jettySize=auto;html=1;exitX=0.788;exitY=0.938;exitDx=0;exitDy=0;entryX=0.313;entryY=0.05;entryDx=0;entryDy=0;entryPerimeter=0;endArrow=none;endFill=0;exitPerimeter=0;" edge="1" parent="Majim5uuupVk0N4lPzxY-31" source="Majim5uuupVk0N4lPzxY-32" target="Majim5uuupVk0N4lPzxY-49">
          <mxGeometry relative="1" as="geometry" />
        </mxCell>
        <mxCell id="Majim5uuupVk0N4lPzxY-51" style="edgeStyle=none;rounded=0;orthogonalLoop=1;jettySize=auto;html=1;exitX=1;exitY=1;exitDx=0;exitDy=0;entryX=0;entryY=0;entryDx=0;entryDy=0;endArrow=none;endFill=0;" edge="1" parent="Majim5uuupVk0N4lPzxY-31" source="Majim5uuupVk0N4lPzxY-35" target="Majim5uuupVk0N4lPzxY-49">
          <mxGeometry relative="1" as="geometry" />
        </mxCell>
        <mxCell id="Majim5uuupVk0N4lPzxY-52" style="edgeStyle=none;rounded=0;orthogonalLoop=1;jettySize=auto;html=1;exitX=1;exitY=0.5;exitDx=0;exitDy=0;entryX=0;entryY=0.5;entryDx=0;entryDy=0;endArrow=none;endFill=0;" edge="1" parent="Majim5uuupVk0N4lPzxY-31" source="Majim5uuupVk0N4lPzxY-43" target="Majim5uuupVk0N4lPzxY-49">
          <mxGeometry relative="1" as="geometry" />
        </mxCell>
        <mxCell id="Majim5uuupVk0N4lPzxY-53" value="" style="group" vertex="1" connectable="0" parent="Majim5uuupVk0N4lPzxY-31">
          <mxGeometry x="99.99885682970029" y="44.19872981077805" width="156.2538290724796" height="169.54190528383288" as="geometry" />
        </mxCell>
        <mxCell id="Majim5uuupVk0N4lPzxY-54" value="" style="html=1;whiteSpace=wrap;shape=isoCube2;backgroundOutline=1;isoAngle=15;fillColor=#d5e8d4;strokeColor=#82b366;opacity=50;rotation=-30;" vertex="1" parent="Majim5uuupVk0N4lPzxY-53">
          <mxGeometry x="18.97114317029974" y="15.801270189221952" width="90" height="100" as="geometry" />
        </mxCell>
        <mxCell id="Majim5uuupVk0N4lPzxY-55" value="" style="html=1;whiteSpace=wrap;shape=isoCube2;backgroundOutline=1;isoAngle=15;fillColor=#d5e8d4;strokeColor=#82b366;opacity=50;rotation=-30;" vertex="1" parent="Majim5uuupVk0N4lPzxY-53">
          <mxGeometry x="42.18114317029974" y="111.64127018922193" width="45" height="50" as="geometry" />
        </mxCell>
        <mxCell id="Majim5uuupVk0N4lPzxY-56" value="" style="html=1;whiteSpace=wrap;shape=isoCube2;backgroundOutline=1;isoAngle=15;fillColor=#d5e8d4;strokeColor=#82b366;opacity=50;rotation=-30;" vertex="1" parent="Majim5uuupVk0N4lPzxY-53">
          <mxGeometry x="90.87114317029975" y="62.88127018922194" width="54" height="60" as="geometry" />
        </mxCell>
        <mxCell id="Majim5uuupVk0N4lPzxY-65" value="" style="group" vertex="1" connectable="0" parent="1">
          <mxGeometry x="490" y="450" width="360" height="250" as="geometry" />
        </mxCell>
        <mxCell id="Majim5uuupVk0N4lPzxY-66" value="" style="ellipse;whiteSpace=wrap;html=1;aspect=fixed;opacity=80;fillColor=#00CC00;" vertex="1" parent="Majim5uuupVk0N4lPzxY-65">
          <mxGeometry x="80" width="80" height="80" as="geometry" />
        </mxCell>
        <mxCell id="Majim5uuupVk0N4lPzxY-67" value="" style="ellipse;whiteSpace=wrap;html=1;aspect=fixed;" vertex="1" parent="Majim5uuupVk0N4lPzxY-65">
          <mxGeometry x="200" width="80" height="80" as="geometry" />
        </mxCell>
        <mxCell id="Majim5uuupVk0N4lPzxY-68" style="edgeStyle=orthogonalEdgeStyle;rounded=0;orthogonalLoop=1;jettySize=auto;html=1;exitX=1;exitY=0.5;exitDx=0;exitDy=0;endArrow=none;endFill=0;" edge="1" parent="Majim5uuupVk0N4lPzxY-65" source="Majim5uuupVk0N4lPzxY-66" target="Majim5uuupVk0N4lPzxY-67">
          <mxGeometry relative="1" as="geometry" />
        </mxCell>
        <mxCell id="Majim5uuupVk0N4lPzxY-69" value="" style="ellipse;whiteSpace=wrap;html=1;aspect=fixed;" vertex="1" parent="Majim5uuupVk0N4lPzxY-65">
          <mxGeometry y="90" width="80" height="80" as="geometry" />
        </mxCell>
        <mxCell id="Majim5uuupVk0N4lPzxY-70" style="edgeStyle=none;rounded=0;orthogonalLoop=1;jettySize=auto;html=1;exitX=0;exitY=0.5;exitDx=0;exitDy=0;entryX=0.5;entryY=0;entryDx=0;entryDy=0;endArrow=none;endFill=0;" edge="1" parent="Majim5uuupVk0N4lPzxY-65" source="Majim5uuupVk0N4lPzxY-66" target="Majim5uuupVk0N4lPzxY-69">
          <mxGeometry relative="1" as="geometry" />
        </mxCell>
        <mxCell id="Majim5uuupVk0N4lPzxY-71" style="edgeStyle=none;rounded=0;orthogonalLoop=1;jettySize=auto;html=1;exitX=0;exitY=1;exitDx=0;exitDy=0;entryX=1;entryY=0;entryDx=0;entryDy=0;endArrow=none;endFill=0;" edge="1" parent="Majim5uuupVk0N4lPzxY-65" source="Majim5uuupVk0N4lPzxY-67" target="Majim5uuupVk0N4lPzxY-69">
          <mxGeometry relative="1" as="geometry" />
        </mxCell>
        <mxCell id="Majim5uuupVk0N4lPzxY-72" style="edgeStyle=none;rounded=0;orthogonalLoop=1;jettySize=auto;html=1;exitX=0;exitY=0;exitDx=0;exitDy=0;endArrow=none;endFill=0;" edge="1" parent="Majim5uuupVk0N4lPzxY-65" source="Majim5uuupVk0N4lPzxY-73" target="Majim5uuupVk0N4lPzxY-66">
          <mxGeometry relative="1" as="geometry">
            <mxPoint x="160" y="60" as="targetPoint" />
          </mxGeometry>
        </mxCell>
        <mxCell id="Majim5uuupVk0N4lPzxY-73" value="" style="ellipse;whiteSpace=wrap;html=1;aspect=fixed;" vertex="1" parent="Majim5uuupVk0N4lPzxY-65">
          <mxGeometry x="280" y="90" width="80" height="80" as="geometry" />
        </mxCell>
        <mxCell id="Majim5uuupVk0N4lPzxY-74" style="edgeStyle=none;rounded=0;orthogonalLoop=1;jettySize=auto;html=1;exitX=1;exitY=0.5;exitDx=0;exitDy=0;entryX=0.5;entryY=0;entryDx=0;entryDy=0;endArrow=none;endFill=0;" edge="1" parent="Majim5uuupVk0N4lPzxY-65" source="Majim5uuupVk0N4lPzxY-67" target="Majim5uuupVk0N4lPzxY-73">
          <mxGeometry relative="1" as="geometry" />
        </mxCell>
        <mxCell id="Majim5uuupVk0N4lPzxY-75" style="edgeStyle=none;rounded=0;orthogonalLoop=1;jettySize=auto;html=1;exitX=1;exitY=0.5;exitDx=0;exitDy=0;endArrow=none;endFill=0;" edge="1" parent="Majim5uuupVk0N4lPzxY-65" source="Majim5uuupVk0N4lPzxY-69" target="Majim5uuupVk0N4lPzxY-73">
          <mxGeometry relative="1" as="geometry" />
        </mxCell>
        <mxCell id="Majim5uuupVk0N4lPzxY-76" style="edgeStyle=none;rounded=0;orthogonalLoop=1;jettySize=auto;html=1;exitX=0.75;exitY=0.125;exitDx=0;exitDy=0;endArrow=none;endFill=0;exitPerimeter=0;" edge="1" parent="Majim5uuupVk0N4lPzxY-65" source="Majim5uuupVk0N4lPzxY-77" target="Majim5uuupVk0N4lPzxY-67">
          <mxGeometry relative="1" as="geometry" />
        </mxCell>
        <mxCell id="Majim5uuupVk0N4lPzxY-77" value="" style="ellipse;whiteSpace=wrap;html=1;aspect=fixed;" vertex="1" parent="Majim5uuupVk0N4lPzxY-65">
          <mxGeometry x="80" y="170" width="80" height="80" as="geometry" />
        </mxCell>
        <mxCell id="Majim5uuupVk0N4lPzxY-78" style="edgeStyle=none;rounded=0;orthogonalLoop=1;jettySize=auto;html=1;exitX=0.5;exitY=1;exitDx=0;exitDy=0;endArrow=none;endFill=0;" edge="1" parent="Majim5uuupVk0N4lPzxY-65" source="Majim5uuupVk0N4lPzxY-66" target="Majim5uuupVk0N4lPzxY-77">
          <mxGeometry relative="1" as="geometry" />
        </mxCell>
        <mxCell id="Majim5uuupVk0N4lPzxY-79" style="edgeStyle=none;rounded=0;orthogonalLoop=1;jettySize=auto;html=1;exitX=0.5;exitY=1;exitDx=0;exitDy=0;entryX=0;entryY=0.5;entryDx=0;entryDy=0;endArrow=none;endFill=0;" edge="1" parent="Majim5uuupVk0N4lPzxY-65" source="Majim5uuupVk0N4lPzxY-69" target="Majim5uuupVk0N4lPzxY-77">
          <mxGeometry relative="1" as="geometry" />
        </mxCell>
        <mxCell id="Majim5uuupVk0N4lPzxY-80" style="edgeStyle=none;rounded=0;orthogonalLoop=1;jettySize=auto;html=1;exitX=0;exitY=1;exitDx=0;exitDy=0;endArrow=none;endFill=0;entryX=0.95;entryY=0.3;entryDx=0;entryDy=0;entryPerimeter=0;" edge="1" parent="Majim5uuupVk0N4lPzxY-65" source="Majim5uuupVk0N4lPzxY-73" target="Majim5uuupVk0N4lPzxY-77">
          <mxGeometry relative="1" as="geometry" />
        </mxCell>
        <mxCell id="Majim5uuupVk0N4lPzxY-81" style="edgeStyle=none;rounded=0;orthogonalLoop=1;jettySize=auto;html=1;exitX=1;exitY=0.5;exitDx=0;exitDy=0;entryX=0.5;entryY=1;entryDx=0;entryDy=0;endArrow=none;endFill=0;" edge="1" parent="Majim5uuupVk0N4lPzxY-65" source="Majim5uuupVk0N4lPzxY-83" target="Majim5uuupVk0N4lPzxY-73">
          <mxGeometry relative="1" as="geometry" />
        </mxCell>
        <mxCell id="Majim5uuupVk0N4lPzxY-82" style="edgeStyle=none;rounded=0;orthogonalLoop=1;jettySize=auto;html=1;exitX=0.5;exitY=0;exitDx=0;exitDy=0;entryX=0.5;entryY=1;entryDx=0;entryDy=0;endArrow=none;endFill=0;" edge="1" parent="Majim5uuupVk0N4lPzxY-65" source="Majim5uuupVk0N4lPzxY-83" target="Majim5uuupVk0N4lPzxY-67">
          <mxGeometry relative="1" as="geometry" />
        </mxCell>
        <mxCell id="Majim5uuupVk0N4lPzxY-83" value="" style="ellipse;whiteSpace=wrap;html=1;aspect=fixed;" vertex="1" parent="Majim5uuupVk0N4lPzxY-65">
          <mxGeometry x="200" y="170" width="80" height="80" as="geometry" />
        </mxCell>
        <mxCell id="Majim5uuupVk0N4lPzxY-84" style="edgeStyle=none;rounded=0;orthogonalLoop=1;jettySize=auto;html=1;exitX=0.788;exitY=0.938;exitDx=0;exitDy=0;entryX=0.313;entryY=0.05;entryDx=0;entryDy=0;entryPerimeter=0;endArrow=none;endFill=0;exitPerimeter=0;" edge="1" parent="Majim5uuupVk0N4lPzxY-65" source="Majim5uuupVk0N4lPzxY-66" target="Majim5uuupVk0N4lPzxY-83">
          <mxGeometry relative="1" as="geometry" />
        </mxCell>
        <mxCell id="Majim5uuupVk0N4lPzxY-85" style="edgeStyle=none;rounded=0;orthogonalLoop=1;jettySize=auto;html=1;exitX=1;exitY=1;exitDx=0;exitDy=0;entryX=0;entryY=0;entryDx=0;entryDy=0;endArrow=none;endFill=0;" edge="1" parent="Majim5uuupVk0N4lPzxY-65" source="Majim5uuupVk0N4lPzxY-69" target="Majim5uuupVk0N4lPzxY-83">
          <mxGeometry relative="1" as="geometry" />
        </mxCell>
        <mxCell id="Majim5uuupVk0N4lPzxY-86" style="edgeStyle=none;rounded=0;orthogonalLoop=1;jettySize=auto;html=1;exitX=1;exitY=0.5;exitDx=0;exitDy=0;entryX=0;entryY=0.5;entryDx=0;entryDy=0;endArrow=none;endFill=0;" edge="1" parent="Majim5uuupVk0N4lPzxY-65" source="Majim5uuupVk0N4lPzxY-77" target="Majim5uuupVk0N4lPzxY-83">
          <mxGeometry relative="1" as="geometry" />
        </mxCell>
        <mxCell id="Majim5uuupVk0N4lPzxY-87" value="" style="group" vertex="1" connectable="0" parent="Majim5uuupVk0N4lPzxY-65">
          <mxGeometry x="99.99885682970029" y="44.19872981077805" width="156.2538290724796" height="169.54190528383288" as="geometry" />
        </mxCell>
        <mxCell id="Majim5uuupVk0N4lPzxY-88" value="" style="html=1;whiteSpace=wrap;shape=isoCube2;backgroundOutline=1;isoAngle=15;fillColor=#d5e8d4;strokeColor=#82b366;opacity=50;rotation=-30;" vertex="1" parent="Majim5uuupVk0N4lPzxY-87">
          <mxGeometry x="18.97114317029974" y="15.801270189221952" width="90" height="100" as="geometry" />
        </mxCell>
        <mxCell id="Majim5uuupVk0N4lPzxY-89" value="" style="html=1;whiteSpace=wrap;shape=isoCube2;backgroundOutline=1;isoAngle=15;fillColor=#d5e8d4;strokeColor=#82b366;opacity=50;rotation=-30;" vertex="1" parent="Majim5uuupVk0N4lPzxY-87">
          <mxGeometry x="42.18114317029974" y="111.64127018922193" width="45" height="50" as="geometry" />
        </mxCell>
        <mxCell id="Majim5uuupVk0N4lPzxY-90" value="" style="html=1;whiteSpace=wrap;shape=isoCube2;backgroundOutline=1;isoAngle=15;fillColor=#d5e8d4;strokeColor=#82b366;opacity=50;rotation=-30;" vertex="1" parent="Majim5uuupVk0N4lPzxY-87">
          <mxGeometry x="90.87114317029975" y="62.88127018922194" width="54" height="60" as="geometry" />
        </mxCell>
        <mxCell id="Majim5uuupVk0N4lPzxY-107" value="" style="shape=image;html=1;verticalAlign=top;verticalLabelPosition=bottom;labelBackgroundColor=#ffffff;imageAspect=0;aspect=fixed;image=https://cdn1.iconfinder.com/data/icons/linecon/512/tick-128.png;dashed=1;fontSize=16;strokeColor=#000000;strokeWidth=2;fillColor=#00CC00;gradientColor=none;opacity=80;" vertex="1" parent="Majim5uuupVk0N4lPzxY-65">
          <mxGeometry x="15" y="105.00000000000003" width="50" height="50" as="geometry" />
        </mxCell>
        <mxCell id="Majim5uuupVk0N4lPzxY-135" value="" style="shape=image;html=1;verticalAlign=top;verticalLabelPosition=bottom;labelBackgroundColor=#ffffff;imageAspect=0;aspect=fixed;image=https://cdn1.iconfinder.com/data/icons/linecon/512/tick-128.png;dashed=1;fontSize=16;strokeColor=#000000;strokeWidth=2;fillColor=#00CC00;gradientColor=none;opacity=80;" vertex="1" parent="Majim5uuupVk0N4lPzxY-65">
          <mxGeometry x="95" y="185" width="50" height="50" as="geometry" />
        </mxCell>
        <mxCell id="Majim5uuupVk0N4lPzxY-136" value="" style="shape=image;html=1;verticalAlign=top;verticalLabelPosition=bottom;labelBackgroundColor=#ffffff;imageAspect=0;aspect=fixed;image=https://cdn1.iconfinder.com/data/icons/linecon/512/tick-128.png;dashed=1;fontSize=16;strokeColor=#000000;strokeWidth=2;fillColor=#00CC00;gradientColor=none;opacity=80;" vertex="1" parent="Majim5uuupVk0N4lPzxY-65">
          <mxGeometry x="215" y="185" width="50" height="50" as="geometry" />
        </mxCell>
        <mxCell id="Majim5uuupVk0N4lPzxY-137" value="" style="shape=image;html=1;verticalAlign=top;verticalLabelPosition=bottom;labelBackgroundColor=#ffffff;imageAspect=0;aspect=fixed;image=https://cdn1.iconfinder.com/data/icons/linecon/512/tick-128.png;dashed=1;fontSize=16;strokeColor=#000000;strokeWidth=2;fillColor=#00CC00;gradientColor=none;opacity=80;" vertex="1" parent="Majim5uuupVk0N4lPzxY-65">
          <mxGeometry x="215" y="15" width="50" height="50" as="geometry" />
        </mxCell>
        <mxCell id="Majim5uuupVk0N4lPzxY-138" value="" style="shape=image;html=1;verticalAlign=top;verticalLabelPosition=bottom;labelBackgroundColor=#ffffff;imageAspect=0;aspect=fixed;image=https://cdn1.iconfinder.com/data/icons/linecon/512/tick-128.png;dashed=1;fontSize=16;strokeColor=#000000;strokeWidth=2;fillColor=#00CC00;gradientColor=none;opacity=80;" vertex="1" parent="Majim5uuupVk0N4lPzxY-65">
          <mxGeometry x="295" y="105" width="50" height="50" as="geometry" />
        </mxCell>
        <mxCell id="Majim5uuupVk0N4lPzxY-91" value="" style="group" vertex="1" connectable="0" parent="1">
          <mxGeometry x="210" y="740.0023084793027" width="140" height="114.27263346820169" as="geometry" />
        </mxCell>
        <mxCell id="Majim5uuupVk0N4lPzxY-58" value="" style="html=1;whiteSpace=wrap;shape=isoCube2;backgroundOutline=1;isoAngle=15;fillColor=#d5e8d4;strokeColor=#82b366;opacity=50;rotation=0;" vertex="1" parent="Majim5uuupVk0N4lPzxY-91">
          <mxGeometry x="18.572287786332126" width="102.84803959937274" height="114.27263346820169" as="geometry" />
        </mxCell>
        <mxCell id="Majim5uuupVk0N4lPzxY-61" value="区块 N" style="swimlane;fontStyle=0;childLayout=stackLayout;horizontal=1;startSize=26;fillColor=none;horizontalStack=0;resizeParent=1;resizeParentMax=0;resizeLast=0;collapsible=1;marginBottom=0;opacity=50;fontSize=16;strokeWidth=2;" vertex="1" parent="Majim5uuupVk0N4lPzxY-91">
          <mxGeometry y="14.267691520697383" width="140" height="100" as="geometry" />
        </mxCell>
        <mxCell id="Majim5uuupVk0N4lPzxY-62" value="交易 2" style="text;strokeColor=none;fillColor=none;align=left;verticalAlign=top;spacingLeft=4;spacingRight=4;overflow=hidden;rotatable=0;points=[[0,0.5],[1,0.5]];portConstraint=eastwest;fontSize=16;" vertex="1" parent="Majim5uuupVk0N4lPzxY-61">
          <mxGeometry y="26" width="140" height="22" as="geometry" />
        </mxCell>
        <mxCell id="Majim5uuupVk0N4lPzxY-63" value="交易 1" style="text;strokeColor=none;fillColor=none;align=left;verticalAlign=top;spacingLeft=4;spacingRight=4;overflow=hidden;rotatable=0;points=[[0,0.5],[1,0.5]];portConstraint=eastwest;fontSize=16;" vertex="1" parent="Majim5uuupVk0N4lPzxY-61">
          <mxGeometry y="48" width="140" height="26" as="geometry" />
        </mxCell>
        <mxCell id="Majim5uuupVk0N4lPzxY-64" value="交易 0" style="text;strokeColor=none;fillColor=none;align=left;verticalAlign=top;spacingLeft=4;spacingRight=4;overflow=hidden;rotatable=0;points=[[0,0.5],[1,0.5]];portConstraint=eastwest;fontSize=16;" vertex="1" parent="Majim5uuupVk0N4lPzxY-61">
          <mxGeometry y="74" width="140" height="26" as="geometry" />
        </mxCell>
        <mxCell id="Majim5uuupVk0N4lPzxY-92" value="" style="html=1;whiteSpace=wrap;shape=isoCube2;backgroundOutline=1;isoAngle=15;fillColor=#d5e8d4;strokeColor=#82b366;opacity=50;rotation=0;" vertex="1" parent="1">
          <mxGeometry x="610.0022877863321" y="850.0023084793027" width="102.84803959937274" height="114.27263346820169" as="geometry" />
        </mxCell>
        <mxCell id="Majim5uuupVk0N4lPzxY-93" value="" style="html=1;whiteSpace=wrap;shape=isoCube2;backgroundOutline=1;isoAngle=15;fillColor=#d5e8d4;strokeColor=#82b366;opacity=50;rotation=0;" vertex="1" parent="1">
          <mxGeometry x="123.57228778633208" y="900.0023084793027" width="102.84803959937274" height="114.27263346820169" as="geometry" />
        </mxCell>
        <mxCell id="Majim5uuupVk0N4lPzxY-94" value="" style="html=1;whiteSpace=wrap;shape=isoCube2;backgroundOutline=1;isoAngle=15;fillColor=#d5e8d4;strokeColor=#82b366;opacity=50;rotation=0;" vertex="1" parent="1">
          <mxGeometry x="193.57228778633208" y="930.0023084793027" width="102.84803959937274" height="114.27263346820169" as="geometry" />
        </mxCell>
        <mxCell id="Majim5uuupVk0N4lPzxY-95" value="" style="html=1;whiteSpace=wrap;shape=isoCube2;backgroundOutline=1;isoAngle=15;fillColor=#d5e8d4;strokeColor=#82b366;opacity=50;rotation=0;" vertex="1" parent="1">
          <mxGeometry x="263.5722877863321" y="960.0023084793027" width="102.84803959937274" height="114.27263346820169" as="geometry" />
        </mxCell>
        <mxCell id="Majim5uuupVk0N4lPzxY-96" value="" style="html=1;whiteSpace=wrap;shape=isoCube2;backgroundOutline=1;isoAngle=15;opacity=50;rotation=0;dashed=1;strokeWidth=2;fillColor=none;" vertex="1" parent="1">
          <mxGeometry x="333.5722877863321" y="990.0023084793027" width="102.84803959937274" height="114.27263346820169" as="geometry" />
        </mxCell>
        <mxCell id="Majim5uuupVk0N4lPzxY-97" value="" style="endArrow=classic;html=1;fontSize=16;strokeWidth=2;" edge="1" parent="1">
          <mxGeometry width="50" height="50" relative="1" as="geometry">
            <mxPoint x="180" y="410" as="sourcePoint" />
            <mxPoint x="50" y="500" as="targetPoint" />
          </mxGeometry>
        </mxCell>
        <mxCell id="Majim5uuupVk0N4lPzxY-98" value="" style="endArrow=classic;html=1;fontSize=16;strokeWidth=2;" edge="1" parent="1">
          <mxGeometry width="50" height="50" relative="1" as="geometry">
            <mxPoint x="20" y="680" as="sourcePoint" />
            <mxPoint x="180" y="770" as="targetPoint" />
          </mxGeometry>
        </mxCell>
        <mxCell id="Majim5uuupVk0N4lPzxY-100" value="" style="endArrow=none;html=1;fontSize=16;strokeWidth=2;startArrow=classic;startFill=1;endFill=0;" edge="1" parent="1">
          <mxGeometry width="50" height="50" relative="1" as="geometry">
            <mxPoint x="526.42" y="650" as="sourcePoint" />
            <mxPoint x="366.42" y="760" as="targetPoint" />
          </mxGeometry>
        </mxCell>
        <mxCell id="Majim5uuupVk0N4lPzxY-101" value="" style="endArrow=none;html=1;fontSize=16;strokeWidth=2;startArrow=classic;startFill=1;endFill=0;" edge="1" parent="1">
          <mxGeometry width="50" height="50" relative="1" as="geometry">
            <mxPoint x="660.76" y="840" as="sourcePoint" />
            <mxPoint x="660.76" y="700" as="targetPoint" />
          </mxGeometry>
        </mxCell>
        <mxCell id="Majim5uuupVk0N4lPzxY-103" value="" style="endArrow=classic;html=1;fontSize=16;strokeWidth=2;" edge="1" parent="1">
          <mxGeometry width="50" height="50" relative="1" as="geometry">
            <mxPoint x="580" y="910" as="sourcePoint" />
            <mxPoint x="450" y="1000" as="targetPoint" />
          </mxGeometry>
        </mxCell>
        <mxCell id="Majim5uuupVk0N4lPzxY-104" value="" style="html=1;whiteSpace=wrap;shape=isoCube2;backgroundOutline=1;isoAngle=15;fillColor=#d5e8d4;strokeColor=#82b366;opacity=50;rotation=0;" vertex="1" parent="1">
          <mxGeometry x="50.00228778633209" y="870.0023084793027" width="102.84803959937274" height="114.27263346820169" as="geometry" />
        </mxCell>
        <mxCell id="Majim5uuupVk0N4lPzxY-105" value="" style="html=1;whiteSpace=wrap;shape=isoCube2;backgroundOutline=1;isoAngle=15;fillColor=#d5e8d4;strokeColor=#82b366;opacity=50;rotation=0;" vertex="1" parent="1">
          <mxGeometry x="-19.99771221366791" y="840.0023084793027" width="102.84803959937274" height="114.27263346820169" as="geometry" />
        </mxCell>
        <mxCell id="Majim5uuupVk0N4lPzxY-140" value="" style="endArrow=none;html=1;fontSize=16;strokeWidth=2;startArrow=classic;startFill=1;endFill=0;" edge="1" parent="1">
          <mxGeometry width="50" height="50" relative="1" as="geometry">
            <mxPoint x="500" y="320" as="sourcePoint" />
            <mxPoint x="690" y="320" as="targetPoint" />
          </mxGeometry>
        </mxCell>
        <mxCell id="Majim5uuupVk0N4lPzxY-141" value="&lt;font style=&quot;font-size: 24px&quot;&gt;用户提交交易请求&lt;/font&gt;" style="text;html=1;strokeColor=none;fillColor=none;align=center;verticalAlign=middle;whiteSpace=wrap;rounded=0;dashed=1;fontSize=16;opacity=80;" vertex="1" parent="1">
          <mxGeometry x="520" y="250" width="221" height="70" as="geometry" />
        </mxCell>
        <mxCell id="Majim5uuupVk0N4lPzxY-142" value="&lt;font style=&quot;font-size: 24px&quot;&gt;区块链网络节点不断&lt;br&gt;收集交易打包至区块&lt;/font&gt;" style="text;html=1;strokeColor=none;fillColor=none;align=center;verticalAlign=middle;whiteSpace=wrap;rounded=0;dashed=1;fontSize=16;opacity=80;" vertex="1" parent="1">
          <mxGeometry x="169.75" y="450" width="260.5" height="70" as="geometry" />
        </mxCell>
        <mxCell id="Majim5uuupVk0N4lPzxY-143" value="&lt;span style=&quot;font-size: 24px&quot;&gt;算法指派一权威节点将该笔交易打包到区块中&lt;/span&gt;" style="text;html=1;strokeColor=none;fillColor=none;align=center;verticalAlign=middle;whiteSpace=wrap;rounded=0;dashed=1;fontSize=16;opacity=80;" vertex="1" parent="1">
          <mxGeometry x="-220.25" y="710" width="260.5" height="70" as="geometry" />
        </mxCell>
        <mxCell id="Majim5uuupVk0N4lPzxY-144" value="&lt;span style=&quot;color: rgb(0 , 0 , 0) ; font-family: &amp;#34;helvetica&amp;#34; ; font-size: 24px ; font-style: normal ; font-weight: 400 ; letter-spacing: normal ; text-align: center ; text-indent: 0px ; text-transform: none ; word-spacing: 0px ; background-color: rgb(255 , 255 , 255) ; display: inline ; float: none&quot;&gt;其余节点对该&lt;br&gt;区块进行验证&lt;/span&gt;" style="text;whiteSpace=wrap;html=1;fontSize=16;" vertex="1" parent="1">
          <mxGeometry x="610" y="370" width="150" height="70" as="geometry" />
        </mxCell>
        <mxCell id="Majim5uuupVk0N4lPzxY-145" value="&lt;div style=&quot;text-align: center&quot;&gt;&lt;span style=&quot;font-size: 24px&quot;&gt;&lt;font face=&quot;helvetica&quot;&gt;验证通过后正式生成新区块&lt;/font&gt;&lt;/span&gt;&lt;/div&gt;" style="text;whiteSpace=wrap;html=1;fontSize=16;" vertex="1" parent="1">
          <mxGeometry x="670" y="730" width="150" height="70" as="geometry" />
        </mxCell>
      </root>
    </mxGraphModel>
  </diagram>
</mxfile>
